<svg xmlns="http://www.w3.org/2000/svg" width="21.332" height="14.227" viewBox="0 0 21.332 14.227">
  <path id="Icon_ionic-ios-arrow-round-forward" data-name="Icon ionic-ios-arrow-round-forward" d="M21.479,11.524a.968.968,0,0,0-.007,1.363l4.5,4.512H8.831a.963.963,0,0,0,0,1.926H25.969l-4.5,4.512a.975.975,0,0,0,.007,1.363.959.959,0,0,0,1.356-.007l6.105-6.15h0a1.082,1.082,0,0,0,.2-.3.919.919,0,0,0,.074-.37.966.966,0,0,0-.274-.674l-6.105-6.15A.944.944,0,0,0,21.479,11.524Z" transform="translate(-7.875 -11.252)" fill="#fff"/>
</svg>
